<svg width="1200" height="1200" viewBox="0 0 1200 1200" fill="none" xmlns="http://www.w3.org/2000/svg">
<rect width="1200" height="1200" fill="white"/>
<mask id="mask0_409_3640" style="mask-type:alpha" maskUnits="userSpaceOnUse" x="0" y="0" width="1197" height="1197">
<circle cx="598.033" cy="598.033" r="598.033" fill="white"/>
</mask>
<g mask="url(#mask0_409_3640)">
<path d="M925.883 1091.76C923.138 1093.73 920.001 1095.69 917.256 1097.65C914.118 1099.61 911.373 1101.57 908.236 1103.14C905.491 1104.71 903.138 1106.27 900.393 1107.84C900.001 1108.24 899.609 1108.24 899.216 1108.63C890.197 1114.12 880.785 1119.22 871.373 1123.92C868.628 1125.49 865.491 1127.06 862.746 1128.24C862.746 1128.24 862.354 1128.63 861.962 1128.63C858.824 1130.2 855.687 1131.76 852.55 1133.33C846.275 1136.47 839.609 1139.22 833.334 1141.96C830.197 1143.53 826.667 1144.71 823.53 1145.88C820.393 1147.06 816.864 1148.63 813.726 1149.8C810.589 1150.98 807.06 1152.55 803.922 1153.73C803.922 1153.73 803.922 1153.73 803.53 1153.73C800.393 1154.9 796.864 1156.08 793.726 1157.25C786.667 1159.61 779.216 1161.96 772.158 1164.31C769.805 1165.1 767.06 1165.88 764.707 1166.67C757.256 1169.02 749.805 1170.98 742.354 1172.55C739.609 1173.33 736.864 1173.73 733.726 1174.51C726.667 1176.08 719.216 1177.65 712.158 1179.22C710.589 1179.61 709.413 1179.61 707.844 1180C705.491 1180.39 702.746 1180.78 700.393 1181.18C696.864 1181.57 693.726 1182.35 690.197 1182.74C688.628 1183.14 687.06 1183.14 685.491 1183.53C683.53 1183.92 681.177 1184.31 678.824 1184.31C672.55 1185.1 665.883 1185.88 659.609 1186.67C657.648 1187.06 655.295 1187.06 653.334 1187.45H652.942C650.197 1187.84 647.452 1187.84 644.707 1188.24C641.962 1188.63 639.217 1188.63 636.471 1188.63C634.903 1188.63 632.942 1189.02 631.373 1189.02C628.236 1189.02 625.491 1189.41 622.746 1189.41C618.824 1189.41 615.295 1189.8 611.373 1189.8C607.452 1189.8 603.922 1189.8 600.001 1189.8C597.256 1189.8 594.511 1189.8 591.766 1189.8C426.275 1187.45 277.648 1117.25 171.373 1005.88C171.373 1005.88 171.373 1005.49 170.981 1005.49C159.216 994.902 169.413 938.431 216.864 902.745C276.471 857.647 419.217 829.412 419.217 829.412C419.217 829.412 474.511 820.392 679.609 863.137C799.609 888.235 890.981 924.706 941.962 1023.53C952.55 1043.92 963.138 1075.29 925.883 1091.76Z" fill="#E4C8B6"/>
<path d="M680.785 858.823C756.079 874.118 836.471 890.588 898.432 940.392C919.216 957.255 932.942 981.961 944.315 1005.88C949.805 1017.65 955.295 1029.8 959.609 1042.75C961.962 1051.37 965.491 1061.18 963.53 1071.37C963.138 1074.12 960.785 1077.65 958.824 1079.61C949.805 1088.63 940.001 1094.12 930.197 1101.18C872.55 1141.18 806.275 1169.41 737.648 1184.31C584.707 1217.65 419.216 1191.76 284.707 1111.37C240.001 1084.31 198.824 1051.37 163.53 1012.55C159.609 1007.84 159.609 1000 159.609 994.902C160.001 983.137 163.138 971.765 167.06 961.176C176.471 936.863 188.628 912.549 209.413 895.686C224.315 885.49 240.393 876.863 256.864 869.804C308.628 847.843 363.138 832.549 419.216 826.274C423.922 825.882 424.707 832.549 420.001 833.333C366.275 844.314 312.942 860.784 263.138 883.137C245.099 892.157 225.883 900 211.373 914.118C197.648 929.02 187.844 947.451 180.001 966.274C174.903 977.647 171.373 995.686 172.942 1004.71C197.648 1034.12 226.667 1060 258.04 1082.35C429.805 1202.35 690.589 1210.2 873.334 1110.2C889.805 1101.18 905.883 1090.98 921.177 1080.39C928.628 1075.29 936.471 1070.98 942.354 1065.1C942.746 1064.71 942.354 1065.1 942.354 1065.49C942.354 1065.88 941.962 1066.27 941.962 1066.27C942.354 1061.57 940.785 1055.29 938.824 1049.02C931.765 1026.27 920.393 1002.35 908.236 981.569C889.02 950.588 856.471 930.98 823.53 915.294C800.785 904.706 776.864 896.471 752.55 888.627C728.236 880.784 703.53 874.118 678.824 868.235C672.55 866.667 674.511 857.647 680.785 858.823Z" fill="black"/>
<path d="M349.414 825.882C349.414 825.882 406.669 803.137 417.257 802.353L418.042 811.373C418.042 811.373 372.552 830.98 369.806 834.118C367.454 836.863 349.414 825.882 349.414 825.882Z" fill="#7E5D6D"/>
<path d="M1056.08 1334.9H64.3147C64.3147 1334.9 70.197 1152.94 129.805 1023.14C174.903 925.098 283.138 860.392 361.962 832.157C384.315 824.313 401.57 815.686 417.648 811.372C417.648 813.333 418.825 827.843 418.825 829.412C418.825 829.412 464.707 761.176 604.707 768.627C669.413 772.157 721.177 789.804 721.177 789.804C728.628 788.235 718.04 826.666 724.707 824.706C727.06 823.921 731.766 847.451 733.727 846.666C784.315 860 846.275 897.647 936.079 972.941C1038.04 1058.43 1056.08 1334.9 1056.08 1334.9Z" fill="black"/>
<path d="M865.099 936.078C890.439 936.078 910.982 915.536 910.982 890.196C910.982 864.856 890.439 844.313 865.099 844.313C839.759 844.313 819.217 864.856 819.217 890.196C819.217 915.536 839.759 936.078 865.099 936.078Z" fill="#FFFF8D"/>
<path d="M258.432 1334.9L240.785 1189.41" stroke="#544D4D" stroke-width="3" stroke-miterlimit="10" stroke-linecap="round" stroke-linejoin="round"/>
<path d="M943.529 1140C943.529 1140 931.764 1168.63 935.294 1197.26C938.823 1225.88 949.019 1267.84 934.509 1334.9" stroke="#544D4D" stroke-width="3" stroke-miterlimit="10" stroke-linecap="round" stroke-linejoin="round"/>
<path d="M349.411 825.885C356.862 823.532 369.803 825.885 373.725 832.551C389.019 857.649 425.882 930.983 441.176 1076.47C453.333 1190.2 434.901 1394.9 434.901 1394.9L54.1172 1376.87C54.1172 1376.87 65.4897 1183.53 98.8231 1053.73C131.764 927.845 217.254 871.375 349.411 825.885Z" fill="url(#paint0_linear_409_3640)"/>
<path d="M346.668 817.648C359.609 814.119 375.295 817.256 382.354 829.413C403.53 865.099 416.864 905.099 427.452 945.099C440.001 994.119 448.236 1044.31 452.55 1094.51C458.825 1195.3 452.942 1295.3 445.099 1396.08C444.707 1401.57 440.001 1405.49 434.511 1405.1L53.7265 1387.06C48.2363 1387.06 43.9226 1382.35 43.9226 1376.47C47.8442 1319.22 53.7265 1262.75 61.1775 1205.88C69.4128 1149.02 78.0403 1092.55 94.1187 1037.26C131.374 913.727 231.766 856.864 346.668 817.648ZM352.55 834.511C299.609 852.55 241.962 865.491 198.04 902.354C176.864 920.393 161.178 944.707 146.276 967.844C115.295 1014.51 104.315 1070.2 94.903 1125.1C80.3932 1208.63 71.7657 1293.33 64.7069 1377.65C64.7069 1377.65 54.903 1367.06 55.2952 1367.06L436.079 1385.1L425.491 1394.12C428.629 1344.31 431.766 1294.51 433.334 1244.71C438.432 1121.57 431.766 995.295 387.06 879.609C381.178 865.099 374.903 850.981 366.668 837.648C363.53 834.511 356.079 833.334 352.55 834.511Z" fill="black"/>
<path d="M743.923 849.804C743.923 849.804 865.099 1077.65 829.805 1381.96H1091.37C1091.37 1381.96 1090.2 1140.39 1031.37 1009.02C972.55 878.039 766.668 839.608 766.668 839.608C766.668 839.608 753.727 846.275 743.923 849.804Z" fill="url(#paint1_linear_409_3640)"/>
<path d="M753.334 853.333C754.511 852.157 754.903 849.804 754.511 848.235V847.843C756.472 852.157 758.824 856.471 760.785 860.784C817.256 986.667 844.707 1125.1 846.276 1262.75C846.668 1275.29 845.491 1301.96 845.099 1314.51C844.707 1334.9 841.177 1362.75 840.001 1383.14L830.197 1371.76H1091.77L1081.57 1381.96C1081.57 1352.94 1080 1323.53 1078.43 1294.51C1071.77 1196.08 1057.26 1025.49 988.628 952.549C935.295 895.294 841.177 860.784 765.099 849.412L771.374 848.627C765.883 851.373 759.609 854.118 754.119 856.471L750.981 857.647L750.197 858.039C751.374 857.647 752.942 855.294 753.334 853.333ZM734.511 846.275C736.079 843.529 739.609 840.392 743.138 839.216L745.883 838.039C751.374 835.686 757.256 832.941 762.746 830.196C764.707 829.412 766.668 829.02 768.628 829.804C783.53 834.118 797.648 838.431 811.766 843.137C825.883 848.235 839.609 853.333 853.334 859.216C894.119 876.863 934.119 897.647 968.236 925.882C995.687 948.235 1023.14 972.941 1038.43 1005.88C1066.28 1069.02 1079.22 1137.25 1088.63 1205.1C1096.86 1263.92 1100.79 1322.75 1101.57 1381.96C1101.57 1387.45 1097.26 1392.16 1091.37 1392.16H829.805C823.923 1392.16 819.217 1386.67 820.001 1380.78C821.57 1360.39 824.707 1333.33 825.099 1313.33C825.491 1301.18 826.668 1274.51 826.275 1262.75C825.491 1144.71 803.53 1026.27 761.962 915.686C754.511 896.078 746.275 876.471 737.256 858.039C734.903 854.902 733.726 849.804 734.511 846.275Z" fill="black"/>
<path d="M743.921 849.803L734.509 847.058C734.509 847.058 748.235 840.391 754.117 836.47L757.647 834.509C757.647 834.509 776.47 843.136 783.137 846.273C789.803 849.411 759.999 863.921 759.999 863.921C759.999 863.921 745.097 850.195 743.921 849.803Z" fill="#7E5D6D"/>
<path d="M316.864 960.392C316.864 960.392 262.746 998.431 267.844 1038.82C272.942 1079.22 439.609 1332.16 439.609 1332.16C439.609 1332.16 459.217 1194.9 436.864 1039.61C436.864 1039.61 420.785 1018.04 391.374 996.47C371.766 982.745 347.06 968.627 316.864 960.392Z" fill="url(#paint2_linear_409_3640)"/>
<path d="M318.825 970.588C320.001 970.588 321.177 969.804 322.354 969.019L321.57 969.411C299.217 983.529 271.766 1009.02 273.726 1037.65C276.079 1049.8 282.746 1061.96 288.628 1073.33C301.177 1097.25 314.903 1120.78 329.021 1144.31C357.256 1190.98 387.06 1236.86 417.648 1281.96L448.628 1327.06L430.197 1330.98C433.334 1307.45 435.295 1283.14 436.472 1258.82C440.393 1186.27 437.648 1113.33 427.452 1041.57L429.413 1046.27C414.903 1028.23 396.864 1012.55 378.04 999.607C360.393 987.843 341.57 978.431 321.177 972.157L320.393 971.764C319.217 971.372 319.217 970.98 318.825 970.588ZM315.295 950.588C318.825 950.98 323.138 951.764 326.668 952.941C360.785 963.529 392.158 982.353 418.825 1006.27C428.628 1014.9 436.864 1023.53 445.491 1034.12C446.668 1035.29 447.06 1036.86 447.452 1038.43C457.648 1111.76 460.393 1185.88 456.864 1260C455.687 1284.71 453.726 1309.02 450.589 1334.12C449.805 1343.53 436.864 1346.27 432.158 1338.04C405.883 1294.12 373.726 1241.18 347.844 1197.25C331.374 1169.02 308.236 1130.59 292.942 1102.35C284.315 1086.27 275.295 1070.2 268.628 1052.94C265.883 1046.67 264.315 1038.82 264.315 1031.37C267.06 1000 289.805 975.686 310.589 953.725C310.981 952.157 313.334 950.98 315.295 950.588Z" fill="black"/>
<path d="M950.197 1039.22C951.766 1014.12 893.727 973.334 893.727 973.334C870.589 980.001 854.119 990.589 842.354 1001.96C816.079 1026.67 812.55 1054.51 812.55 1054.51L814.119 1061.57C841.962 1182.75 833.727 1340.39 833.727 1340.39C833.727 1340.39 948.629 1064.31 950.197 1039.22Z" fill="url(#paint3_linear_409_3640)"/>
<path d="M945.49 1038.82C943.529 1015.69 907.058 991.765 887.842 981.569L896.47 983.138C861.176 992.941 829.803 1019.22 822.352 1056.08L821.96 1052.16C827.45 1075.69 832.156 1100 834.901 1123.92C844.313 1196.08 846.274 1268.24 843.529 1340.78C843.529 1341.18 824.313 1336.47 824.313 1336.47C844.313 1294.51 870.587 1232.16 889.019 1188.63C899.607 1163.92 909.411 1138.82 919.215 1113.73C928.627 1089.02 939.607 1064.31 945.49 1038.82ZM952.548 1039.22C950.195 1052.94 945.097 1065.49 940.784 1078.43C927.45 1116.47 912.156 1154.12 898.431 1192.16C885.489 1226.67 861.568 1290.59 849.411 1324.71L842.744 1343.92C838.823 1354.9 822.352 1351.37 823.529 1339.61C826.274 1268.63 824.313 1196.86 814.901 1126.27C812.156 1102.75 807.45 1079.61 802.352 1056.86C801.568 1052.55 803.137 1048.24 804.313 1044.31C815.686 1004.31 851.764 974.51 890.98 963.922C894.117 962.745 897.254 963.53 899.607 965.491C908.627 975.687 922.352 989.02 930.98 999.608C939.999 1010.59 952.548 1023.14 952.548 1039.22Z" fill="black"/>
<path d="M812.552 1052.16C812.552 1052.16 786.277 950.197 773.336 917.648C760.395 885.491 736.081 849.02 734.905 847.06C652.16 769.02 500.787 769.02 530.199 740.001C562.748 707.844 697.65 729.805 746.669 754.118C790.591 777.256 976.473 885.099 982.748 921.177C989.022 961.177 836.866 958.824 812.552 1052.16Z" fill="url(#paint4_linear_409_3640)"/>
<path d="M812.55 1062.35C808.236 1061.96 803.53 1058.04 802.354 1053.73V1053.33L801.962 1051.76L801.177 1048.63L799.609 1041.96C789.413 1002.75 779.609 961.569 766.275 923.529C756.864 898.431 743.138 874.902 728.628 851.765L729.805 852.941C715.687 839.216 698.824 828.235 681.57 818.431C645.883 799.216 607.06 787.059 568.236 775.686C554.903 770.588 522.354 765.098 520.393 748.627C520.393 731.372 547.06 723.921 559.609 721.569C611.373 713.725 664.315 723.137 714.119 736.863C726.668 740.784 739.217 745.098 750.981 750.98C755.295 753.333 767.06 760 771.373 762.353C807.06 782.745 841.962 804.314 876.472 827.059C910.981 849.804 945.883 871.765 974.903 901.961C998.432 926.274 984.315 941.961 958.432 953.333C921.57 969.804 881.177 981.176 851.373 1008.24C840.785 1018.04 832.158 1029.41 827.06 1042.35C825.099 1046.67 825.099 1048.63 823.138 1053.73C821.177 1056.86 816.079 1061.18 812.55 1062.35ZM812.55 1042.35C810.197 1040.78 805.883 1042.35 804.707 1044.31C803.922 1045.88 804.707 1044.31 805.099 1043.92C806.275 1040.78 807.844 1037.25 809.413 1034.12C837.648 979.608 902.354 965.882 954.119 944.314C974.119 935.294 989.021 927.451 968.236 906.667C939.609 877.647 904.315 856.47 870.197 834.902C835.295 813.725 799.609 793.725 763.53 774.51L750.197 767.451C719.609 750.98 685.099 743.921 650.981 738.431C621.177 734.51 558.432 727.451 536.472 748.627C536.472 748.627 536.864 747.843 536.864 746.667C536.864 745.49 536.472 745.098 536.472 744.706C536.472 744.706 537.648 745.882 539.217 746.667C549.413 752.157 561.177 755.294 572.942 758.823C612.55 770.588 652.942 782.745 689.805 802.745C709.021 813.333 727.844 825.49 743.53 841.569C758.824 865.098 773.334 889.804 783.922 916.078C798.04 955.294 808.236 996.078 819.217 1036.08L820.785 1042.74L821.57 1046.27L821.962 1047.84V1048.24C821.177 1044.71 816.079 1041.57 812.55 1042.35Z" fill="black"/>
<path d="M436.865 1040C436.865 1040 409.414 1010.98 376.473 990.587C303.532 945.489 196.473 924.705 195.296 889.803C194.512 850.587 324.708 768.627 410.983 740.783C540.786 704.705 557.649 747.45 559.218 765.489C560.002 774.117 418.434 819.607 419.218 828.627V829.019C419.218 829.019 401.179 834.901 414.12 924.705C417.257 947.058 430.983 985.489 436.865 1040Z" fill="url(#paint5_linear_409_3640)"/>
<path d="M441.179 1049.02C437.649 1050.59 431.767 1049.41 429.022 1046.27L428.63 1045.49L427.453 1044.31C426.277 1042.74 421.963 1038.43 420.394 1037.25C410.982 1027.84 400.786 1018.43 390.59 1010.2C362.355 987.45 329.022 972.548 296.081 957.646C270.59 946.666 244.316 936.862 220.002 923.136C181.963 901.96 183.924 880.783 212.551 850.979C252.551 811.764 300.394 781.568 350.59 756.862C369.414 747.842 389.022 739.607 409.022 733.332C452.551 721.568 554.512 698.822 565.492 763.136C565.492 764.313 565.884 765.097 565.492 766.666C565.1 768.234 564.316 769.019 563.924 769.803C559.218 774.509 552.943 776.862 547.453 779.215C521.963 789.803 495.688 798.43 469.414 807.45C453.335 813.332 436.473 818.038 421.571 826.273C420.786 827.058 419.61 827.842 420.002 829.018C412.943 834.901 413.335 845.489 412.159 853.724C411.375 879.999 415.688 907.45 421.571 932.94C428.63 958.43 437.257 985.097 442.355 1011.37C443.924 1019.61 446.277 1027.06 445.884 1035.29C445.1 1040.39 443.139 1045.49 441.179 1049.02ZM432.551 1030.98C430.59 1029.41 427.061 1029.8 425.492 1031.37C423.532 1017.25 421.179 1003.14 418.041 989.018C412.551 963.136 403.924 936.077 401.571 909.019L400.394 895.293C399.218 875.293 396.081 838.43 410.983 823.136C412.159 822.352 412.159 821.568 416.081 819.999L409.022 829.411C408.63 827.45 410.59 822.744 411.375 821.96C413.728 818.822 415.688 818.038 418.433 816.077C432.943 807.842 448.63 802.352 463.924 796.077C481.179 789.411 523.924 772.94 540.394 765.881C543.924 764.313 548.63 762.352 551.375 760.391C550.59 761.567 550.198 761.567 549.414 764.313C549.022 765.097 549.414 768.626 549.022 766.666C543.532 730.587 487.061 736.862 459.61 740.783C405.884 749.411 356.081 770.587 308.237 796.469C276.865 814.117 245.1 832.94 219.218 858.43C210.59 867.45 200.786 877.646 200.002 889.803C201.963 907.45 234.12 919.215 249.022 926.666C282.747 941.175 317.649 953.332 350.983 969.019C380.786 982.744 408.63 1001.57 433.335 1023.14C436.081 1025.49 440.786 1029.8 443.139 1032.16C442.747 1031.37 440.002 1029.8 437.649 1029.41C436.081 1029.8 434.12 1030.19 432.551 1030.98Z" fill="black"/>
<path d="M717.644 963.138C709.409 1003.53 656.076 1027.84 566.272 991.373C472.939 953.726 432.546 863.922 422.35 837.255C477.644 733.726 439.213 661.961 439.213 661.961C566.664 650.981 678.037 800 678.037 800L695.292 873.726C696.86 880 699.997 885.491 704.703 889.412C712.939 903.922 722.743 937.255 717.644 963.138Z" fill="#E4C8B6"/>
<path d="M420.391 838.432C427.842 827.059 432.548 813.726 435.685 800.785C441.568 773.726 443.529 746.275 443.921 718.824V708.628C442.744 698.432 439.215 687.844 435.293 678.432C430.195 665.883 448.627 658.04 454.509 670.589C455.293 672.157 455.293 674.902 455.293 676.471C456.47 729.804 458.823 798.432 425.097 842.746C422.744 845.099 418.038 841.569 420.391 838.432Z" fill="black"/>
<path d="M682.351 799.216C688.233 802.746 690.194 807.452 690.978 812.158C693.331 821.569 692.547 831.766 694.9 841.569C696.861 850.981 702.743 860.001 704.312 869.805C706.272 880.001 712.155 901.569 714.508 912.158C715.292 914.511 713.723 917.256 710.978 917.648C709.41 918.04 708.233 917.648 707.057 916.864C701.959 912.55 699.606 908.236 696.469 902.746C691.371 893.334 687.841 884.707 684.704 874.118C681.959 864.707 683.135 854.511 680.782 844.707C678.821 835.295 673.331 826.275 671.37 816.471C670.194 811.765 669.802 806.667 673.331 800.785C675.684 798.432 679.606 797.648 682.351 799.216Z" fill="black"/>
<path d="M710.587 902.745C635.685 898.824 574.509 875.294 514.901 769.02C565.097 813.334 624.313 830.196 686.666 838.04L694.901 874.118C696.47 880.392 705.882 898.824 710.587 902.745Z" fill="black"/>
<path d="M707.452 888.236C720.785 913.334 728.628 944.706 720.393 972.549C714.118 992.157 696.079 1006.67 676.471 1012.16C630.981 1024.31 578.432 1005.1 538.04 983.53C488.236 955.687 451.373 909.02 427.844 858.04C426.275 854.118 431.765 850.981 434.118 854.902C442.354 871.373 451.765 887.451 462.354 901.961C472.942 916.863 485.099 930.589 498.824 942.745C538.824 978.824 592.942 1001.18 647.06 1001.18C702.746 999.608 723.922 970.196 710.981 916.079C709.02 907.451 705.883 898.432 701.569 890.981C699.216 887.843 705.099 884.314 707.452 888.236Z" fill="black"/>
<path d="M859.215 417.255C866.274 450.196 869.803 476.863 850.587 564.706C831.764 652.157 877.646 670.196 769.019 810.196C724.705 867.451 617.254 851.373 530.195 792.157C500.783 772.157 488.234 720.785 466.274 684.314C449.019 655.687 441.176 685.49 418.431 660.785C387.45 627.059 350.195 559.216 368.627 439.216C398.431 244.706 552.548 221.961 666.666 243.53C781.568 265.49 840.391 330.588 859.215 417.255Z" fill="#E4C8B6"/>
<path d="M438.038 695.686C429.019 680.392 417.254 667.059 406.274 652.941C395.685 638.432 387.058 622.353 379.999 605.883C333.333 491.373 351.372 330.196 465.882 262.745C513.333 235.294 570.587 228.628 623.921 232.941C738.038 241.177 842.744 293.726 867.45 414.51C880.784 467.843 862.744 522.745 852.548 574.902C847.842 600.785 851.764 627.451 851.372 654.118C850.98 681.177 843.529 708.235 833.333 733.334C827.058 750.588 816.078 765.882 804.705 780C785.882 802.745 767.058 825.883 743.136 843.53C737.646 847.451 727.842 849.412 721.176 850.196C702.744 852.941 684.705 853.726 666.274 852.549C594.117 849.412 516.862 814.51 487.842 744.706C486.666 741.961 490.587 740 492.156 742.353C529.803 801.961 598.823 831.373 667.45 835.294C688.627 836.471 710.195 836.079 730.98 831.765C741.176 826.667 750.195 817.647 758.823 809.412C779.999 788.235 801.568 765.49 816.862 739.608C835.293 704.706 845.489 666.667 842.352 627.059C841.568 609.412 841.176 590.981 844.705 573.334C847.842 555.686 851.764 538.824 854.117 520.785C856.47 503.53 857.646 485.883 857.646 468.628C855.685 418.039 839.215 365.883 807.058 326.667C736.078 238.432 568.235 215.294 473.725 275.686C414.117 312.549 386.274 381.569 377.254 448.628C363.529 529.02 367.45 608.235 431.372 666.667L450.195 686.275C457.646 694.902 444.313 705.098 438.038 695.686Z" fill="black"/>
<path d="M484.311 570.98C484.311 570.98 472.155 512.157 414.9 519.215C365.488 525.49 348.233 643.921 460.39 676.863" fill="#E4C8B6"/>
<path d="M455.293 625.49C446.274 620.392 439.999 611.765 439.607 601.176C439.999 593.333 441.176 584.314 439.215 576.471C438.038 569.02 430.195 567.059 424.313 567.451C418.038 568.627 414.117 576.471 412.94 582.745C412.94 583.137 412.548 584.314 412.548 584.706C412.156 586.667 409.019 586.667 408.235 584.706C403.137 569.412 414.509 552.549 430.98 554.51C454.117 556.078 457.254 580.392 452.94 598.823C450.587 606.667 453.725 613.725 458.038 620.392L458.823 621.569C460.784 623.921 457.646 627.059 455.293 625.49Z" fill="black"/>
<path d="M769.018 529.412C774.9 557.255 785.881 583.137 799.606 607.451C811.763 637.255 780.39 665.49 752.547 664.313C749.41 664.313 749.018 660 751.763 659.215C769.41 653.725 785.488 641.961 788.234 623.921C789.41 618.431 787.841 613.725 785.096 609.019C772.155 584.706 764.312 556.862 766.273 529.412C766.273 527.451 769.018 527.451 769.018 529.412Z" fill="black"/>
<path d="M482.352 571.373C473.332 548.235 453.725 526.275 427.45 526.667C425.097 526.275 421.176 527.059 418.823 527.059C412.156 527.451 406.666 529.804 401.568 534.51C376.47 559.608 380.783 603.922 401.176 631.765C408.234 641.569 417.254 650.196 427.45 657.255C437.646 664.314 449.019 669.804 461.176 674.51C463.921 675.294 462.744 679.608 459.999 679.216C433.725 673.726 408.627 660.784 391.372 639.216C364.705 607.059 359.215 553.333 390.979 521.961C398.038 515.686 407.842 510.98 417.646 510.98C420.783 510.98 425.489 510.196 428.627 510.98C445.097 511.765 460.783 520 470.979 532.941C479.999 543.922 485.097 557.255 486.666 570.588C486.666 572.941 483.136 573.726 482.352 571.373Z" fill="black"/>
<path d="M739.216 703.529C714.118 727.451 666.667 708.235 654.118 679.216C652.549 675.686 656.471 672.549 659.608 674.117C666.275 677.647 672.157 681.176 678.432 683.921C696.471 692.157 715.294 698.823 735.294 696.863C739.216 696.078 741.961 700.784 739.216 703.529Z" fill="black"/>
<path d="M680.39 487.843C689.018 489.02 695.685 480 692.547 471.373C690.979 466.667 688.234 462.353 683.92 459.608C670.587 451.373 620.783 450.589 594.508 469.412C570.979 486.667 641.175 482.353 680.39 487.843Z" fill="black"/>
<path d="M789.018 492.157C781.959 492.157 777.645 483.138 781.175 475.687C783.135 471.765 785.881 468.236 789.802 466.275C801.959 460.393 834.508 463.922 849.018 483.922C861.959 501.569 821.567 491.765 789.018 492.157Z" fill="black"/>
<path d="M665.881 538.432C645.881 529.804 623.136 532.157 602.351 536.863C599.998 537.647 598.43 534.51 600.391 532.941C618.43 518.04 652.547 516.079 667.057 536.471C668.234 537.255 667.449 538.824 665.881 538.432Z" fill="black"/>
<path d="M819.998 546.667C810.586 540 796.861 541.177 785.881 542.353C781.959 542.746 778.037 543.53 773.724 544.706C772.547 545.099 771.371 543.138 772.155 542.353L772.939 541.569C782.743 531.373 798.037 529.02 811.371 534.118C816.077 536.079 820.783 538.824 823.135 544.314C824.312 546.275 821.567 548.236 819.998 546.667Z" fill="black"/>
<path d="M673.943 214.902C498.256 198.039 439.825 256.863 416.688 277.647C384.139 306.275 334.727 419.608 336.688 484.314C339.041 574.51 411.198 669.804 414.335 674.51C430.413 698.432 446.884 712.941 451.198 718.039C448.845 709.412 444.923 678.432 448.452 672.941C350.413 635.294 368.06 525.883 415.903 519.608C466.1 513.334 481.786 558.039 484.531 569.02C484.531 569.02 484.531 570.196 484.923 572.157C485.315 572.157 485.707 572.549 486.099 572.549C503.354 578.432 519.433 561.177 513.55 544.314C504.531 519.608 494.335 490.981 492.766 472.549C490.413 419.216 511.982 358.432 670.805 367.059C691.198 368.235 708.845 371.373 726.099 374.902C734.727 377.255 757.864 386.275 750.021 408.628C742.57 430.196 727.276 412.549 722.962 414.51C720.609 415.686 735.511 435.686 757.472 431.765C775.511 428.628 790.021 410.196 783.747 385.883C790.021 386.667 796.688 387.451 803.354 388.235C845.707 391.373 883.747 358.432 882.57 316.079C881.394 272.941 841.001 230.981 673.943 214.902Z" fill="black"/>
<path d="M452.376 719.608C452.376 719.216 451.984 718.823 451.199 717.647C451.984 720 452.376 720.784 452.376 719.608Z" fill="black"/>
<path d="M796.471 767.864C802.353 736.883 804.314 705.511 799.216 674.53C797.255 662.766 790.196 643.158 779.216 651.785C774.902 655.315 752.549 662.373 748.235 662.766C735.686 663.942 726.275 662.373 717.255 655.315C707.059 647.079 707.059 643.55 704.706 642.766C663.529 629.04 611.765 615.315 594.902 670.609C581.177 715.707 546.667 760.02 521.176 716.099C501.569 682.766 502.745 619.236 500 605.903C493.333 572.962 483.922 556.883 478.431 561.589C478.431 572.177 481.961 697.275 482.353 703.942C485.098 738.452 489.412 749.432 505.098 771.785C520.784 794.138 575.686 854.922 647.059 860.02C718.824 865.119 758.431 859.236 798.431 813.354C834.51 771.785 835.686 685.511 835.686 685.511C818.039 737.668 805.882 754.922 796.471 767.864ZM634.902 679.628C655.294 657.275 685.098 683.158 717.255 685.511C749.02 687.864 761.961 667.864 764.314 703.158C765.098 711.785 766.275 726.295 765.882 736.099C765.882 736.491 765.882 736.883 765.882 737.275C764.706 748.256 761.177 760.413 750.196 767.079C727.059 781.589 689.804 778.06 665.882 773.354C632.549 766.687 625.49 751.393 623.922 744.334C621.569 714.138 626.667 688.648 634.902 679.628Z" fill="black"/>
<path d="M1130.2 330.588C1368.24 789.02 949.804 1306.27 450.981 1180C227.059 1124.31 47.0589 930.196 9.80403 702.353C-32.5489 475.686 69.804 232.157 261.177 103.922C523.53 -76.4704 887.059 -16.4704 1074.9 241.569C1076.08 242.745 1075.69 244.706 1074.12 245.883C1072.94 247.059 1070.98 246.667 1069.8 245.098C1043.92 211.765 1014.51 181.569 982.353 154.51C929.412 109.412 867.451 74.1179 801.961 50.1963C468.628 -70.588 102.745 130.196 29.804 478.824C-52.5489 869.412 279.608 1229.02 675.686 1175.29C981.177 1136.86 1208.24 854.902 1183.14 548.235C1177.65 474.118 1158.04 400.785 1125.49 333.334C1124.71 332.157 1125.49 330.588 1126.67 329.804C1127.84 329.02 1129.41 329.412 1130.2 330.588Z" fill="black"/>
</g>
<defs>
<linearGradient id="paint0_linear_409_3640" x1="249.721" y1="824.996" x2="249.721" y2="1394.9" gradientUnits="userSpaceOnUse">
<stop stop-color="#8A42DB"/>
<stop offset="1" stop-color="#7DFFAF"/>
</linearGradient>
<linearGradient id="paint1_linear_409_3640" x1="917.648" y1="839.608" x2="917.648" y2="1381.96" gradientUnits="userSpaceOnUse">
<stop stop-color="#8A42DB"/>
<stop offset="1" stop-color="#7DFFAF"/>
</linearGradient>
<linearGradient id="paint2_linear_409_3640" x1="357.535" y1="960.392" x2="357.535" y2="1332.16" gradientUnits="userSpaceOnUse">
<stop stop-color="#8A42DB"/>
<stop offset="1" stop-color="#7DFFAF"/>
</linearGradient>
<linearGradient id="paint3_linear_409_3640" x1="881.389" y1="973.334" x2="881.389" y2="1340.39" gradientUnits="userSpaceOnUse">
<stop stop-color="#8A42DB"/>
<stop offset="1" stop-color="#7DFFAF"/>
</linearGradient>
<linearGradient id="paint4_linear_409_3640" x1="754.7" y1="723.897" x2="754.7" y2="1052.16" gradientUnits="userSpaceOnUse">
<stop stop-color="#8A42DB"/>
<stop offset="1" stop-color="#7DFFAF"/>
</linearGradient>
<linearGradient id="paint5_linear_409_3640" x1="377.257" y1="726.744" x2="377.257" y2="1040" gradientUnits="userSpaceOnUse">
<stop stop-color="#8A42DB"/>
<stop offset="1" stop-color="#7DFFAF"/>
</linearGradient>
</defs>
</svg>
